<svg width="70" height="70" viewBox="0 0 70 70" fill="none" xmlns="http://www.w3.org/2000/svg">
<circle cx="35" cy="35" r="35" fill="#5566E8"/>
<path d="M30.0718 46.5386C30.0376 46.7664 29.9351 46.9487 29.7642 47.0854C29.5933 47.2336 29.3939 47.3076 29.166 47.3076H29.1318C26.0671 47.1025 23.0763 47 20.1597 47C17.1974 47 14.3434 47.1025 11.5977 47.3076H11.5122C11.2502 47.2848 11.0337 47.1937 10.8628 47.0342C10.6919 46.8747 10.6064 46.6639 10.6064 46.4019C10.6064 46.174 10.6862 45.9803 10.8457 45.8208C11.0052 45.6499 11.2046 45.5531 11.4438 45.5303C11.8084 45.4961 12.173 45.4733 12.5376 45.4619C12.9136 45.4391 13.2839 45.4163 13.6484 45.3936V24.561C13.2839 24.5382 12.9193 24.5269 12.5547 24.5269C12.2015 24.5269 11.8426 24.5269 11.478 24.5269C11.2388 24.5041 11.0337 24.4129 10.8628 24.2534C10.6919 24.0825 10.6064 23.8717 10.6064 23.6211C10.6064 23.3704 10.6976 23.1597 10.8799 22.9888C11.0622 22.8065 11.2729 22.7153 11.5122 22.7153C11.9451 22.7381 12.361 22.7495 12.7598 22.7495C13.1699 22.7495 13.5744 22.7495 13.9731 22.7495C16.3999 22.7495 18.8039 22.6698 21.1851 22.5103C23.5662 22.3507 25.9417 22.1115 28.3115 21.7925H28.4653C28.6932 21.7925 28.8869 21.8722 29.0464 22.0317C29.2059 22.1799 29.3027 22.3564 29.3369 22.5615L30.0718 28.3379V28.4575C30.0718 28.7196 29.9749 28.9303 29.7812 29.0898C29.599 29.2493 29.3939 29.3291 29.166 29.3291C28.9495 29.3291 28.7559 29.2607 28.585 29.124C28.4255 28.9759 28.3229 28.7879 28.2773 28.5601L27.6621 23.6895C26.3405 23.8717 25.0132 24.0199 23.6802 24.1338C22.3586 24.2363 21.0256 24.3218 19.6812 24.3901V35.6523C19.9546 35.641 20.3192 35.6239 20.7749 35.6011C21.2306 35.5783 21.7205 35.5441 22.2446 35.4985C22.7801 35.453 23.3213 35.4017 23.8682 35.3447C24.4264 35.2764 24.9448 35.1966 25.4233 35.1055H25.5942C25.8335 35.1055 26.0443 35.1966 26.2266 35.3789C26.4089 35.5498 26.5 35.7492 26.5 35.9771C26.5 36.2049 26.4316 36.3986 26.2949 36.5581C26.1582 36.7176 25.9816 36.8258 25.7651 36.8828C25.241 36.9854 24.6771 37.0708 24.0732 37.1392C23.4808 37.2075 22.8997 37.2645 22.3301 37.3101C21.7718 37.3442 21.2591 37.3727 20.792 37.3955C20.3249 37.4183 19.9546 37.4354 19.6812 37.4468V45.2227H20.1597C21.5155 45.2227 22.877 45.2397 24.2441 45.2739C25.6227 45.3081 27.007 45.3708 28.397 45.4619L29.0122 40.8818C29.0578 40.654 29.1603 40.4717 29.3198 40.335C29.4907 40.1868 29.6844 40.1128 29.9009 40.1128C30.1743 40.1128 30.3908 40.2096 30.5503 40.4033C30.7212 40.597 30.8066 40.7907 30.8066 40.9844V41.1211L30.0718 46.5386ZM55.2451 40.3521C55.2451 41.5939 54.9603 42.7048 54.3906 43.6846C53.821 44.653 53.0861 45.4733 52.186 46.1455C51.286 46.8063 50.2834 47.3133 49.1782 47.6665C48.0845 48.0197 47.0021 48.1963 45.9312 48.1963C43.9259 48.1963 42.0745 47.8317 40.377 47.1025C38.6794 46.3734 37.1698 45.3024 35.8481 43.8896V44.2998C35.8481 44.6644 35.8538 45.0233 35.8652 45.3765C35.8766 45.7297 35.8937 46.0828 35.9165 46.436V46.5044C35.9165 46.7323 35.8368 46.9316 35.6772 47.1025C35.5291 47.2734 35.3298 47.3703 35.0791 47.3931C34.8171 47.3931 34.6006 47.3133 34.4297 47.1538C34.2588 46.9943 34.1619 46.7892 34.1392 46.5386C34.1164 46.174 34.0993 45.8094 34.0879 45.4448C34.0765 45.0688 34.0708 44.6986 34.0708 44.334C34.0708 43.1719 34.1278 42.1009 34.2417 41.1211C34.3556 40.1299 34.5094 39.1501 34.7031 38.1816C34.7601 37.9652 34.8626 37.7886 35.0107 37.6519C35.1702 37.5151 35.3582 37.4468 35.5747 37.4468C35.8368 37.4468 36.0532 37.5493 36.2241 37.7544C36.395 37.9481 36.4805 38.1475 36.4805 38.3525C36.4805 38.3753 36.4805 38.4038 36.4805 38.438C36.4805 38.4608 36.4691 38.4893 36.4463 38.5234C36.3893 38.7855 36.3381 39.0304 36.2925 39.2583C36.2583 39.4748 36.2184 39.6912 36.1729 39.9077C36.1387 40.1128 36.1045 40.3293 36.0703 40.5571C36.0475 40.7736 36.019 41.0186 35.9849 41.292C37.2609 42.9326 38.7192 44.1973 40.3599 45.0859C42.0005 45.9632 43.8462 46.4019 45.897 46.4019C46.478 46.4019 47.099 46.3506 47.7598 46.248C48.432 46.1455 49.0472 45.9632 49.6055 45.7012C50.1751 45.4277 50.6423 45.0688 51.0068 44.6245C51.3828 44.1688 51.5708 43.5934 51.5708 42.8984C51.5708 42.4085 51.4398 41.9642 51.1777 41.5654C50.9157 41.1553 50.5739 40.7907 50.1523 40.4717C49.7308 40.1527 49.2523 39.8735 48.7168 39.6343C48.1927 39.3836 47.6629 39.1672 47.1274 38.9849C46.592 38.8026 46.0793 38.6545 45.5894 38.5405C45.1108 38.4152 44.7007 38.3184 44.3589 38.25C43.55 38.0791 42.7467 37.8911 41.9492 37.686C41.1517 37.4696 40.394 37.2132 39.6763 36.917C38.9585 36.6208 38.292 36.2733 37.6768 35.8745C37.0615 35.4757 36.526 35.0086 36.0703 34.4731C35.626 33.9263 35.2728 33.2939 35.0107 32.5762C34.7601 31.8584 34.6348 31.0324 34.6348 30.0981C34.6348 29.1867 34.7544 28.3493 34.9937 27.5859C35.2443 26.8112 35.5861 26.1162 36.019 25.501C36.452 24.8857 36.959 24.3503 37.54 23.8945C38.1325 23.4274 38.7762 23.04 39.4712 22.7324C40.1662 22.4134 40.8953 22.1799 41.6587 22.0317C42.4334 21.8722 43.2139 21.7925 44 21.7925C44.4785 21.7925 44.9855 21.8324 45.521 21.9121C46.0679 21.9805 46.609 22.083 47.1445 22.2197C47.68 22.3451 48.2041 22.4989 48.7168 22.6812C49.2409 22.8521 49.7251 23.0457 50.1694 23.2622C50.6138 23.4673 51.0068 23.6895 51.3486 23.9287C51.6904 24.1566 51.9639 24.3901 52.1689 24.6294C52.3285 24.1965 52.4993 23.7692 52.6816 23.3477C52.8753 22.9147 53.0747 22.4818 53.2798 22.0488C53.3709 21.8893 53.4849 21.7697 53.6216 21.6899C53.7697 21.5988 53.9235 21.5532 54.083 21.5532C54.3451 21.5532 54.5615 21.6501 54.7324 21.8438C54.9033 22.026 54.9888 22.2311 54.9888 22.459C54.9888 22.5843 54.9546 22.7153 54.8862 22.8521C54.2938 24.0825 53.8039 25.3187 53.4165 26.5605C53.0405 27.791 52.7728 29.0386 52.6133 30.3032C52.5905 30.5311 52.4937 30.7191 52.3228 30.8672C52.1632 31.0039 51.9696 31.0723 51.7417 31.0723C51.4797 31.0723 51.2632 30.9754 51.0923 30.7817C50.9214 30.5881 50.8359 30.3944 50.8359 30.2007V30.0981C50.9727 28.8905 51.2176 27.6999 51.5708 26.5264C51.5024 26.3213 51.3258 26.1048 51.041 25.877C50.7562 25.6377 50.403 25.4098 49.9814 25.1934C49.5713 24.9769 49.1042 24.7718 48.5801 24.5781C48.056 24.373 47.5205 24.1965 46.9736 24.0483C46.4268 23.9002 45.8799 23.7806 45.333 23.6895C44.7861 23.5983 44.2848 23.5527 43.8291 23.5527C43.1341 23.5527 42.4676 23.6268 41.8296 23.7749C41.1916 23.923 40.6219 24.1623 40.1206 24.4927C39.6307 24.8231 39.2319 25.2503 38.9243 25.7744C38.6167 26.2871 38.4572 26.908 38.4458 27.6372C38.4914 28.2752 38.6623 28.8278 38.9585 29.2949C39.2661 29.7507 39.6421 30.1494 40.0864 30.4912C40.5422 30.833 41.0549 31.1235 41.6245 31.3628C42.1942 31.5907 42.7695 31.79 43.3506 31.9609C43.943 32.1204 44.5184 32.2629 45.0767 32.3882C45.6349 32.5021 46.1419 32.6104 46.5977 32.7129C47.7484 32.9863 48.8478 33.2939 49.896 33.6357C50.9442 33.9775 51.8613 34.4276 52.6475 34.9858C53.445 35.5441 54.0773 36.2562 54.5444 37.1221C55.0116 37.9766 55.2451 39.0532 55.2451 40.3521Z" fill="white"/>
</svg>
